<?xml version="1.0" encoding="UTF-8"?>
<svg xmlns="http://www.w3.org/2000/svg" xmlns:xlink="http://www.w3.org/1999/xlink" width="28px" height="28px" viewBox="0 0 28 28" version="1.1">
<g id="surface1">
<path style=" stroke:none;fill-rule:nonzero;fill:rgb(100%,100%,100%);fill-opacity:1;" d="M 4.199219 0 L 23.800781 0 C 26.121094 0 28 1.878906 28 4.199219 L 28 23.800781 C 28 26.121094 26.121094 28 23.800781 28 L 4.199219 28 C 1.878906 28 0 26.121094 0 23.800781 L 0 4.199219 C 0 1.878906 1.878906 0 4.199219 0 Z M 4.199219 0 "/>
<path style=" stroke:none;fill-rule:nonzero;fill:rgb(25.882353%,52.156863%,95.686275%);fill-opacity:1;" d="M 8.640625 21.382812 L 8.640625 13.617188 L 4.15625 10.171875 L 4.15625 19.742188 C 4.15625 20.835938 4.703125 21.382812 5.796875 21.382812 "/>
<path style=" stroke:none;fill-rule:nonzero;fill:rgb(91.764706%,26.27451%,20.784314%);fill-opacity:1;" d="M 8.421875 13.5625 L 14 17.773438 L 19.578125 13.5625 L 19.578125 8.203125 L 14 12.414062 L 8.421875 8.203125 "/>
<path style=" stroke:none;fill-rule:nonzero;fill:rgb(20.392157%,65.882353%,32.54902%);fill-opacity:1;" d="M 19.359375 21.382812 L 19.359375 13.617188 L 23.84375 10.171875 L 23.84375 19.742188 C 23.84375 20.835938 23.296875 21.382812 22.203125 21.382812 "/>
<path style=" stroke:none;fill-rule:nonzero;fill:rgb(77.254902%,13.333333%,12.156863%);fill-opacity:1;" d="M 4.15625 10.28125 L 8.640625 13.726562 L 8.640625 8.367188 L 7 7.109375 C 5.523438 5.960938 4.15625 7.109375 4.15625 8.53125 "/>
<path style=" stroke:none;fill-rule:nonzero;fill:rgb(98.431373%,73.72549%,1.568627%);fill-opacity:1;" d="M 23.84375 10.28125 L 19.359375 13.726562 L 19.359375 8.367188 L 21 7.109375 C 22.476562 5.960938 23.84375 7.109375 23.84375 8.53125 "/>
</g>
</svg>
