<?xml version="1.0" encoding="UTF-8"?>
<svg xmlns="http://www.w3.org/2000/svg" xmlns:xlink="http://www.w3.org/1999/xlink" width="28px" height="28px" viewBox="0 0 28 28" version="1.1">
<defs>
<radialGradient id="radial0" gradientUnits="userSpaceOnUse" cx="0" cy="0" fx="0" fy="0" r="1" gradientTransform="matrix(12.68745,-18.375034,18.375034,12.68745,10.500121,20.125466)">
<stop offset="0" style="stop-color:rgb(69.411765%,20.784314%,53.72549%);stop-opacity:1;"/>
<stop offset="0.793" style="stop-color:rgb(77.647059%,18.431373%,58.039216%);stop-opacity:1;"/>
<stop offset="1" style="stop-color:rgb(54.117647%,22.745098%,78.431373%);stop-opacity:1;"/>
</radialGradient>
<radialGradient id="radial1" gradientUnits="userSpaceOnUse" cx="0" cy="0" fx="0" fy="0" r="1" gradientTransform="matrix(8.312578,-17.937419,17.937419,8.312578,9.624177,27.12494)">
<stop offset="0" style="stop-color:rgb(87.843137%,90.980392%,71.764706%);stop-opacity:1;"/>
<stop offset="0.445" style="stop-color:rgb(98.431373%,54.117647%,18.039216%);stop-opacity:1;"/>
<stop offset="0.715" style="stop-color:rgb(88.627451%,25.882353%,36.078431%);stop-opacity:1;"/>
<stop offset="1" style="stop-color:rgb(88.627451%,25.882353%,36.078431%);stop-opacity:0;"/>
</radialGradient>
<radialGradient id="radial2" gradientUnits="userSpaceOnUse" cx="0" cy="0" fx="0" fy="0" r="1" gradientTransform="matrix(33.687526,-4.8125,1.02935,7.205415,0.4375,2.625)">
<stop offset="0.157" style="stop-color:rgb(25.098039%,41.568627%,86.27451%);stop-opacity:1;"/>
<stop offset="0.468" style="stop-color:rgb(41.568627%,27.058824%,74.509804%);stop-opacity:1;"/>
<stop offset="1" style="stop-color:rgb(41.568627%,27.058824%,74.509804%);stop-opacity:0;"/>
</radialGradient>
</defs>
<g id="surface1">
<path style=" stroke:none;fill-rule:nonzero;fill:url(#radial0);" d="M 7 1.75 L 21 1.75 C 23.898438 1.75 26.25 4.101562 26.25 7 L 26.25 21 C 26.25 23.898438 23.898438 26.25 21 26.25 L 7 26.25 C 4.101562 26.25 1.75 23.898438 1.75 21 L 1.75 7 C 1.75 4.101562 4.101562 1.75 7 1.75 Z M 7 1.75 "/>
<path style=" stroke:none;fill-rule:nonzero;fill:url(#radial1);" d="M 7 1.75 L 21 1.75 C 23.898438 1.75 26.25 4.101562 26.25 7 L 26.25 21 C 26.25 23.898438 23.898438 26.25 21 26.25 L 7 26.25 C 4.101562 26.25 1.75 23.898438 1.75 21 L 1.75 7 C 1.75 4.101562 4.101562 1.75 7 1.75 Z M 7 1.75 "/>
<path style=" stroke:none;fill-rule:nonzero;fill:url(#radial2);" d="M 7 1.75 L 21 1.75 C 23.898438 1.75 26.25 4.101562 26.25 7 L 26.25 21 C 26.25 23.898438 23.898438 26.25 21 26.25 L 7 26.25 C 4.101562 26.25 1.75 23.898438 1.75 21 L 1.75 7 C 1.75 4.101562 4.101562 1.75 7 1.75 Z M 7 1.75 "/>
<path style=" stroke:none;fill-rule:nonzero;fill:rgb(100%,100%,100%);fill-opacity:1;" d="M 20.125 9.1875 C 20.125 9.914062 19.539062 10.5 18.8125 10.5 C 18.085938 10.5 17.5 9.914062 17.5 9.1875 C 17.5 8.460938 18.085938 7.875 18.8125 7.875 C 19.539062 7.875 20.125 8.460938 20.125 9.1875 Z M 20.125 9.1875 "/>
<path style=" stroke:none;fill-rule:evenodd;fill:rgb(100%,100%,100%);fill-opacity:1;" d="M 14 18.375 C 16.417969 18.375 18.375 16.417969 18.375 14 C 18.375 11.582031 16.417969 9.625 14 9.625 C 11.582031 9.625 9.625 11.582031 9.625 14 C 9.625 16.417969 11.582031 18.375 14 18.375 Z M 14 16.625 C 15.449219 16.625 16.625 15.449219 16.625 14 C 16.625 12.550781 15.449219 11.375 14 11.375 C 12.550781 11.375 11.375 12.550781 11.375 14 C 11.375 15.449219 12.550781 16.625 14 16.625 Z M 14 16.625 "/>
<path style=" stroke:none;fill-rule:evenodd;fill:rgb(100%,100%,100%);fill-opacity:1;" d="M 5.25 13.648438 C 5.25 10.710938 5.25 9.238281 5.820312 8.117188 C 6.324219 7.128906 7.128906 6.324219 8.117188 5.820312 C 9.238281 5.25 10.710938 5.25 13.648438 5.25 L 14.351562 5.25 C 17.289062 5.25 18.761719 5.25 19.882812 5.820312 C 20.871094 6.324219 21.675781 7.128906 22.179688 8.117188 C 22.75 9.238281 22.75 10.710938 22.75 13.648438 L 22.75 14.351562 C 22.75 17.289062 22.75 18.761719 22.179688 19.882812 C 21.675781 20.871094 20.871094 21.675781 19.882812 22.179688 C 18.761719 22.75 17.289062 22.75 14.351562 22.75 L 13.648438 22.75 C 10.710938 22.75 9.238281 22.75 8.117188 22.179688 C 7.128906 21.675781 6.324219 20.871094 5.820312 19.882812 C 5.25 18.761719 5.25 17.289062 5.25 14.351562 Z M 13.648438 7 L 14.351562 7 C 15.847656 7 16.867188 7 17.65625 7.066406 C 18.421875 7.128906 18.816406 7.242188 19.089844 7.382812 C 19.746094 7.71875 20.28125 8.253906 20.617188 8.910156 C 20.757812 9.183594 20.871094 9.578125 20.933594 10.34375 C 21 11.132812 21 12.152344 21 13.648438 L 21 14.351562 C 21 15.847656 21 16.867188 20.933594 17.65625 C 20.871094 18.421875 20.757812 18.816406 20.617188 19.089844 C 20.28125 19.746094 19.746094 20.28125 19.089844 20.617188 C 18.816406 20.757812 18.421875 20.871094 17.65625 20.933594 C 16.867188 21 15.847656 21 14.351562 21 L 13.648438 21 C 12.152344 21 11.132812 21 10.34375 20.933594 C 9.578125 20.871094 9.183594 20.757812 8.910156 20.617188 C 8.253906 20.28125 7.71875 19.746094 7.382812 19.089844 C 7.242188 18.816406 7.128906 18.421875 7.066406 17.65625 C 7 16.867188 7 15.847656 7 14.351562 L 7 13.648438 C 7 12.152344 7 11.132812 7.066406 10.34375 C 7.128906 9.578125 7.242188 9.183594 7.382812 8.910156 C 7.71875 8.253906 8.253906 7.71875 8.910156 7.382812 C 9.183594 7.242188 9.578125 7.128906 10.34375 7.066406 C 11.132812 7 12.152344 7 13.648438 7 Z M 13.648438 7 "/>
</g>
</svg>
